<svg xmlns="http://www.w3.org/2000/svg" width="135" height="20" viewBox="0 0 135 20"><path fill="#2D2D2D" d="M122.375 19.059v-18.184h11.001v3.35h-7.169v3.875h6.146v3.332h-6.146v4.191h7.279v3.436h-11.111zm-12.03 0v-14.778h-5.938v-3.406h15.812v3.405h-5.914v14.778h-3.96zm-10.83 0l-4.672-6.518-4.429 6.518h-4.276l6.536-9.411-6.438-8.772h4.843l3.983 5.513 3.74-5.513h4.246l-5.842 8.382 7.176 9.801h-4.867zm-26.26 0v-18.184h11.001v3.35h-7.176v3.875h6.146v3.332h-6.146v4.191h7.279v3.436h-11.104zm-12.147 0v-14.778h-5.933v-3.406h15.801v3.405h-5.909v14.778h-3.959zm-23.652-18.792v18.792h3.612v-10.514l12.012 11.22h.049v-18.89h-3.618v10.611l-11.982-11.219h-.073zm-4.952 2.777c-1.761-1.791-4.1-2.777-6.573-2.777-2.485 0-4.8.975-6.523 2.747-1.804 1.852-2.753 4.258-2.753 6.95 0 2.68.949 5.074 2.753 6.926 1.736 1.791 4.057 2.778 6.523 2.778 2.912 0 5.599-1.359 7.371-3.729 1.261-1.675 1.9-3.686 1.9-5.97 0-2.74-.932-5.134-2.698-6.925zm-6.573 12.895c-2.954 0-5.184-2.564-5.184-5.976 0-3.423 2.229-6 5.184-6s5.184 2.577 5.184 6c-.007 3.412-2.23 5.976-5.184 5.976zm-16.495 3.722c-2.145 0-4.154-.683-5.812-1.979-2.333-1.84-3.624-4.58-3.624-7.718 0-2.71.932-5.104 2.698-6.926 1.78-1.803 4.185-2.803 6.762-2.803 2.01 0 3.795.537 5.464 1.646l-.408 4.105c-1.536-1.443-3.131-2.156-4.873-2.156-3.313 0-5.635 2.498-5.635 6.08 0 3.533 2.315 6 5.635 6 1.791 0 3.594-.694 5.366-2.071l-.249 4.276c-1.511.998-3.4 1.546-5.324 1.546" id="Calque_1_2_"/></svg>
